#!OML:ASF H:\BabyWalks\Project 1\Capture day 1\Session 1\baby.ASF
:FULLY-SPECIFIED
:DEGREES
444
root -3.36131 17.7243 2.43303 9.58153 46.939 3.00622
lowerback 20.4295 -1.9372 -5.39276
upperback 3.52244 -3.63572 -0.811329
thorax -7.28579 -1.58175 3.12503
lowerneck -1.94297 1.87296 6.25674
upperneck 0.276792 2.42779 -7.1806
head 0.611202 1.18204 -3.39145
rclavicle 3.61788e-014 1.66979e-014
rhumerus -57.535 9.59774 -81.2181
rradius 45.0325
rwrist -4.50298
rhand -4.0687 -17.6295
rfingers 7.12502
rthumb 21.688 -46.4347
lclavicle 3.61788e-014 1.66979e-014
lhumerus -37.8747 -11.6507 67.2039
lradius 72.4133
lwrist 2.3352
lhand -8.2617 5.48063
lfingers 7.12502
lthumb 17.657 34.6989
rfemur -26.6848 9.13935 8.78973
rtibia 27.317
rfoot -10.3051 2.83079
rtoes -5.71049
lfemur 4.77209 -5.95133 -6.85974
ltibia 21.2319
lfoot -8.84816 -4.37496
ltoes -30.4762
445
root -3.31745 17.7158 2.57158 9.44843 46.9527 2.86359
lowerback 20.5251 -1.96442 -4.97892
upperback 3.53976 -3.56722 -0.56377
thorax -7.33351 -1.55511 3.14627
lowerneck -1.89653 2.13963 6.82994
upperneck 0.0342421 2.77879 -8.29287
head 0.583696 1.35538 -3.88842
rclavicle -6.91771e-014 3.33958e-014
rhumerus -57.1533 9.337 -80.9007
rradius 44.6361
rwrist -4.29392
rhand -3.75075 -17.6503
rfingers 7.12502
rthumb 21.9933 -46.42
lclavicle -6.91771e-014 3.33958e-014
lhumerus -39.0079 -11.5087 68.1255
lradius 71.7174
lwrist 2.16846
lhand -8.35149 5.68655
lfingers 7.12502
lthumb 17.5706 34.9126
rfemur -26.637 8.69927 9.39501
rtibia 28.1354
rfoot -10.3804 3.09997
rtoes -5.41745
lfemur 4.11165 -5.85792 -6.51873
ltibia 23.2473
lfoot -8.63388 -4.61197
ltoes -29.5772
446
root -3.27465 17.7045 2.7063 9.22245 46.9338 2.62172
lowerback 20.6572 -1.97628 -4.51889
upperback 3.57824 -3.46667 -0.304918
thorax -7.38191 -1.51395 3.14625
lowerneck -1.86426 2.43024 7.45625
upperneck -0.205152 3.15951 -9.42199
head 0.570541 1.54472 -4.41217
rclavicle 3.1408e-014 7.55382e-015
rhumerus -56.6825 9.0203 -80.5391
rradius 44.1798
rwrist -4.00466
rhand -3.49725 -17.6938
rfingers 7.12502
rthumb 22.2367 -46.4346
lclavicle 3.1408e-014 7.55382e-015
lhumerus -40.0978 -11.2883 69.0625
lradius 70.9334
lwrist 1.93156
lhand -8.52281 5.91089
lfingers 7.12502
lthumb 17.4057 35.1516
rfemur -26.5759 8.41609 10.0336
rtibia 28.9548
rfoot -10.6861 3.34511
rtoes -5.20015
lfemur 3.33387 -5.68005 -6.12824
ltibia 25.5608
lfoot -8.51382 -4.80879
ltoes -28.2722
447
root -3.23162 17.6908 2.8372 8.90028 46.8765 2.26803
lowerback 20.8045 -1.97348 -3.99681
upperback 3.63939 -3.33014 -0.0362097
thorax -7.41874 -1.45716 3.11195
lowerneck -1.85643 2.74017 8.06185
upperneck -0.410144 3.56505 -10.9089
head 0.533239 1.7415 -4.54264
rclavicle 4.90998e-014 -1.55052e-014
rhumerus -56.1301 8.64387 -80.1378
rradius 43.6682
rwrist -3.62831
rhand -3.34135 -17.7662
rfingers 7.12502
rthumb 22.3863 -46.489
lclavicle 4.90998e-014 -1.55052e-014
lhumerus -41.1295 -10.9954 70.0096
lradius 70.0525
lwrist 1.63161
lhand -8.76677 6.14193
lfingers 7.12502
lthumb 17.1709 35.4032
rfemur -26.4825 8.27157 10.7154
rtibia 29.7421
rfoot -11.1549 3.5721
rtoes -5.00266
lfemur 2.46263 -5.43476 -5.68888
ltibia 28.1194
lfoot -8.48905 -4.95752
ltoes -26.5063
448
root -3.18807 17.6754 2.96432 8.50238 46.7946 1.79997
lowerback 20.9448 -1.95947 -3.4036
upperback 3.71538 -3.15946 0.244212
thorax -7.4403 -1.38581 3.03948
lowerneck -1.84619 3.06441 8.74032
upperneck -0.622977 3.98875 -12.0929
head 0.551969 1.95327 -5.01158
rclavicle 8.34896e-015 3.79679e-014
rhumerus -55.5168 8.20417 -79.702
rradius 43.1205
rwrist -3.16336
rhand -3.30113 -17.8614
rfingers 7.12502
rthumb 22.4249 -46.5797
lclavicle 8.34896e-015 3.79679e-014
lhumerus -42.0894 -10.6426 70.9624
lradius 69.0726
lwrist 1.27771
lhand -9.04071 6.37062
lfingers 7.12502
lthumb 16.9072 35.6547
rfemur -26.3656 8.22219 11.4477
rtibia 30.4736
rfoot -11.7051 3.78544
rtoes -4.7652
lfemur 1.49333 -5.14686 -5.1962
ltibia 30.8611
lfoot -8.57414 -5.106
ltoes -24.3357
449
root -3.14328 17.6593 3.088 8.06606 46.6945 1.24515
lowerback 21.0555 -1.93608 -2.75478
upperback 3.80031 -2.9606 0.533518
thorax -7.43888 -1.30246 2.93498
lowerneck -1.83475 3.39538 9.40388
upperneck -0.818076 4.42318 -13.2289
head 0.584555 2.17132 -5.46497
rclavicle -6.88789e-014 2.96189e-014
rhumerus -54.8586 7.7105 -79.241
rradius 42.5527
rwrist -2.61094
rhand -3.39609 -17.9747
rfingers 7.12502
rthumb 22.3338 -46.7039
lclavicle -6.88789e-014 2.96189e-014
lhumerus -42.9706 -10.2323 71.9194
lradius 67.991
lwrist 0.883147
lhand -9.33659 6.58768
lfingers 7.12502
lthumb 16.6224 35.8959
rfemur -26.2408 8.22073 12.2162
rtibia 31.1369
rfoot -12.2715 3.98636
rtoes -4.48602
lfemur 0.432552 -4.85166 -4.67627
ltibia 33.7178
lfoot -8.80047 -5.28326
ltoes -21.9948
450
root -3.09689 17.6431 3.20845 7.62933 46.5776 0.632728
lowerback 21.1164 -1.89933 -2.06668
upperback 3.88814 -2.73322 0.826951
thorax -7.40882 -1.2065 2.80175
lowerneck -1.81126 3.72187 10.0258
upperneck -1.00285 4.85408 -14.2851
head 0.623522 2.38895 -5.88874
rclavicle 2.44008e-014 -2.80286e-014
rhumerus -54.1769 7.17277 -78.7674
rradius 41.9871
rwrist -1.98005
rhand -3.64096 -18.0996
rfingers 7.12502
rthumb 22.0987 -46.8567
lclavicle 2.44008e-014 -2.80286e-014
lhumerus -43.7588 -9.77752 72.8763
lradius 66.8044
lwrist 0.458224
lhand -9.62456 6.78787
lfingers 7.12502
lthumb 16.3452 36.1191
rfemur -26.131 8.23221 13.0015
rtibia 31.7321
rfoot -12.8341 4.18704
rtoes -4.21936
lfemur -0.718299 -4.57075 -4.15393
ltibia 36.627
lfoot -9.17024 -5.55375
ltoes -19.6561
